<?xml version="1.0" encoding="UTF-8"?>
<!DOCTYPE svg PUBLIC "-//W3C//DTD SVG 1.1//EN" "http://www.w3.org/Graphics/SVG/1.1/DTD/svg11.dtd">
<svg version="1.1" xmlns="http://www.w3.org/2000/svg" xmlns:xlink="http://www.w3.org/1999/xlink" x="0" y="0" width="749.373" height="688.053" viewBox="0, 0, 749.373, 688.053">
  <g id="layer2">
    <g id="path1388">
      <path d="M389.443,684.107 C393.339,582.725 393.302,481.257 394.303,379.817 C403.753,373.607 377.027,361.997 388.093,356.597 C362.717,328.787 311.957,266.691 307.367,225.921 C307.097,224.301 307.367,222.411 307.907,220.791 C321.407,178.671 438.853,104.151 440.743,101.451 L469.633,141.681 C469.363,142.221 383.773,202.701 361.637,227.541 C353.537,236.721 414.553,305.837 429.943,314.747 C429.673,301.517 466.933,331.217 482.053,335.807 L531.459,335.807 C531.459,335.807 567.909,325.547 578.709,322.307 C589.239,319.067 590.049,328.247 590.049,328.247 C595.449,326.087 692.645,272.091 692.915,256.701 C665.915,209.721 600.039,161.661 599.499,161.121 L639.459,133.041 C641.349,135.741 716.945,192.171 743.405,253.191 C747.995,263.721 745.565,275.601 738.815,287.751 C705.605,326.357 611.109,392.237 611.109,392.237 C611.109,392.237 605.169,485.117 602.199,684.107" fill="#8ED7F7"/>
      <path d="M389.443,684.107 C393.339,582.725 393.302,481.257 394.303,379.817 C403.753,373.607 377.027,361.997 388.093,356.597 C362.717,328.787 311.957,266.691 307.367,225.921 C307.097,224.301 307.367,222.411 307.907,220.791 C321.407,178.671 438.853,104.151 440.743,101.451 L469.633,141.681 C469.363,142.221 383.773,202.701 361.637,227.541 C353.537,236.721 414.553,305.837 429.943,314.747 C429.673,301.517 466.933,331.217 482.053,335.807 L531.459,335.807 C531.459,335.807 567.909,325.547 578.709,322.307 C589.239,319.067 590.049,328.247 590.049,328.247 C595.449,326.087 692.645,272.091 692.915,256.701 C665.915,209.721 600.039,161.661 599.499,161.121 L639.459,133.041 C641.349,135.741 716.945,192.171 743.405,253.191 C747.995,263.721 745.565,275.601 738.815,287.751 C705.605,326.357 611.109,392.237 611.109,392.237 C611.109,392.237 605.169,485.117 602.199,684.107" fill-opacity="0" stroke="#373435" stroke-width="7.249" stroke-linecap="round" stroke-linejoin="round"/>
    </g>
  </g>
  <g id="layer1">
    <path d="M392.143,598.787 L389.713,684.107 L389.443,684.107 C390.523,649.007 391.603,612.827 392.143,598.787 z" fill="#8ED7F7" id="path1386"/>
    <path d="M440.743,101.451 L469.633,141.681" fill-opacity="0" stroke="#373435" stroke-width="7.249" stroke-linecap="round" stroke-linejoin="round" id="path1396"/>
    <path d="M482.053,335.807 L531.459,335.807" fill-opacity="0" stroke="#373435" stroke-width="7.249" stroke-linecap="round" stroke-linejoin="round" id="path1402"/>
    <path d="M599.229,161.121 L639.459,133.041" fill-opacity="0" stroke="#373435" stroke-width="7.249" stroke-linecap="round" stroke-linejoin="round" id="path1408"/>
    <g id="g1418">
      <path d="M479.353,302.327 L478.543,333.107 L502.033,373.607 L531.189,334.187 L525.249,297.737 z" fill="#FCD2B5" id="path1414"/>
      <path d="M479.353,302.327 L478.543,333.107 L502.033,373.607 L531.189,334.187 L525.249,297.737 z" fill-opacity="0" stroke="#373435" stroke-width="7.249" stroke-linejoin="round" id="path1416"/>
    </g>
    <g id="g1424">
      <path d="M266.867,135.201 C266.867,135.201 309.797,191.901 272.537,230.781 L226.37,350.927 C226.37,350.927 225.56,404.117 170.21,420.317 C170.21,420.317 32.514,455.147 3.624,358.217 C3.624,358.217 32.514,379.817 39.804,352.547 C39.804,352.547 -7.446,288.021 6.594,203.511 C19.284,127.641 86.514,66.891 194.78,88.491 C198.02,89.031 210.17,92.541 218,96.321 C231.5,102.801 252.557,115.491 267.137,135.741 z" fill="#BD9E83" id="path1420"/>
      <path d="M266.867,135.201 C266.867,135.201 309.797,191.901 272.537,230.781 L226.37,350.927 C226.37,350.927 225.56,404.117 170.21,420.317 C170.21,420.317 32.514,455.147 3.624,358.217 C3.624,358.217 32.514,379.817 39.804,352.547 C39.804,352.547 -7.446,288.021 6.594,203.511 C19.284,127.641 86.514,66.891 194.78,88.491 C198.02,89.031 210.17,92.541 218,96.321 C231.5,102.801 252.557,115.491 267.137,135.741 z" fill-opacity="0" stroke="#373435" stroke-width="7.249" stroke-linejoin="round" id="path1422"/>
    </g>
    <path d="M240.68,684.107 C239.33,646.307 240.95,600.677 250.127,552.347 C251.747,543.977 277.127,493.757 276.587,485.657 C270.377,415.457 242.57,357.947 226.64,350.657 C182.36,329.867 139.43,389.267 139.43,389.267 C139.43,389.267 99.474,436.247 89.214,460.547 C77.604,488.357 84.624,595.547 74.634,684.377 L240.95,684.377 z" fill="#F9C3C2" id="path1426"/>
    <path d="M240.68,684.107 C239.33,646.307 240.95,600.677 250.127,552.347 C251.747,543.977 277.127,493.757 276.587,485.657 C270.377,415.457 242.57,357.947 226.64,350.657 C182.36,329.867 139.43,389.267 139.43,389.267 C139.43,389.267 99.474,436.247 89.214,460.547 C77.604,488.357 84.624,595.547 74.634,684.377" fill-opacity="0" stroke="#373435" stroke-width="7.249" stroke-linecap="round" stroke-linejoin="round" id="path1428"/>
    <g id="g1434">
      <path d="M423.463,342.827 C423.463,342.827 435.073,376.847 421.573,415.187 C414.013,436.247 397.003,456.767 361.097,468.107 C351.647,500.777 313.307,591.767 187.76,586.367 C187.76,586.367 153.74,590.147 153.47,542.627 C152.66,472.427 182.63,411.947 234.74,383.597 C235.55,347.687 245.537,324.197 259.577,309.077 C283.607,283.431 322.217,277.221 345.167,281.001 C345.167,281.001 406.183,290.987 423.463,342.557 z" fill="#FFE8B5" id="path1430"/>
      <path d="M423.463,342.827 C423.463,342.827 435.073,376.847 421.573,415.187 C414.013,436.247 397.003,456.767 361.097,468.107 C351.647,500.777 313.307,591.767 187.76,586.367 C187.76,586.367 153.74,590.147 153.47,542.627 C152.66,472.427 182.63,411.947 234.74,383.597 C235.55,347.687 245.537,324.197 259.577,309.077 C283.607,283.431 322.217,277.221 345.167,281.001 C345.167,281.001 406.183,290.987 423.463,342.557 z" fill-opacity="0" stroke="#373435" stroke-width="7.249" stroke-linejoin="round" id="path1432"/>
    </g>
    <g id="g1440">
      <path d="M353.267,415.457 C362.177,421.937 364.877,434.087 358.667,442.457 C354.347,448.667 346.787,451.097 339.497,449.747 C339.497,453.257 338.417,456.767 336.257,459.737 C330.317,468.107 317.897,469.727 308.987,463.247 C305.477,460.817 303.047,457.577 301.697,454.067 C295.487,461.357 283.877,462.437 275.507,456.497 C266.597,450.287 264.167,438.407 269.567,430.037 C265.247,430.307 260.657,428.957 256.877,425.987 C247.967,419.507 245.537,407.357 251.477,398.987 C253.637,396.017 256.607,393.857 259.847,392.777 C256.067,386.297 256.067,378.467 260.387,372.257 C266.327,363.887 278.747,362.267 287.657,368.747 L353.537,415.727 z" fill="#DFB7D6" id="path1436"/>
      <path d="M353.267,415.457 C362.177,421.937 364.877,434.087 358.667,442.457 C354.347,448.667 346.787,451.097 339.497,449.747 C339.497,453.257 338.417,456.767 336.257,459.737 C330.317,468.107 317.897,469.727 308.987,463.247 C305.477,460.817 303.047,457.577 301.697,454.067 C295.487,461.357 283.877,462.437 275.507,456.497 C266.597,450.287 264.167,438.407 269.567,430.037 C265.247,430.307 260.657,428.957 256.877,425.987 C247.967,419.507 245.537,407.357 251.477,398.987 C253.637,396.017 256.607,393.857 259.847,392.777 C256.067,386.297 256.067,378.467 260.387,372.257 C266.327,363.887 278.747,362.267 287.657,368.747 L353.537,415.727 z" fill-opacity="0" stroke="#373435" stroke-width="7.249" stroke-linejoin="round" id="path1438"/>
    </g>
    <g id="_334907288">
      <path d="M289.547,320.687 L289.007,320.417" fill-opacity="0" stroke="#373435" stroke-width="7.249" stroke-linecap="round" stroke-linejoin="round" id="path1442"/>
      <path d="M268.757,351.737 L289.007,320.417 C282.527,313.667 270.107,310.157 261.467,320.957 C250.937,334.457 264.707,349.037 268.757,352.007 z" fill="#FCD2B5" id="path1444"/>
      <path d="M289.007,320.417 C282.527,313.667 270.107,310.157 261.467,320.957 C250.937,334.457 264.707,349.037 268.757,352.007" fill-opacity="0" stroke="#373435" stroke-width="7.249" stroke-linecap="round" stroke-linejoin="round" id="path1446"/>
    </g>
    <g id="_334907408">
      <path d="M400.243,400.877 L400.783,401.147" fill-opacity="0" stroke="#373435" stroke-width="7.249" stroke-linecap="round" stroke-linejoin="round" id="path1449"/>
      <path d="M377.297,430.307 L400.783,401.147 C409.153,405.197 416.713,415.997 408.883,427.607 C399.433,441.917 381.073,433.277 377.297,430.307 z" fill="#FDE1D2" id="path1451"/>
      <path d="M400.783,401.147 C409.153,405.197 416.713,415.997 408.883,427.607 C399.433,441.917 381.077,433.277 377.297,430.307" fill-opacity="0" stroke="#373435" stroke-width="7.249" stroke-linecap="round" stroke-linejoin="round" id="path1453"/>
    </g>
    <g id="g1460">
      <path d="M396.463,412.757 C372.707,445.697 332.207,450.557 296.567,425.447 C259.307,398.447 253.637,359.567 277.397,326.627 C304.127,288.561 347.057,286.401 379.997,310.157 C412.933,333.917 423.463,372.797 396.463,412.757 z" fill="#FDE3D8" id="path1456"/>
      <path d="M396.463,412.757 C372.707,445.697 332.207,450.557 296.567,425.447 C259.307,398.447 253.637,359.567 277.397,326.627 C304.127,288.561 347.057,286.401 379.997,310.157 C412.933,333.917 423.463,372.797 396.463,412.757 z" fill-opacity="0" stroke="#373435" stroke-width="7.249" stroke-linejoin="round" id="path1458"/>
    </g>
    <g id="g1466">
      <path d="M344.087,322.847 C340.037,334.187 328.697,333.107 328.697,333.107 C363.527,361.187 404.023,341.477 404.023,341.477 L406.453,341.747 C401.053,329.597 392.143,319.067 380.267,310.157 C365.417,299.357 348.407,293.957 331.937,294.767 C339.767,297.737 348.137,311.507 344.357,322.577 z" fill="#B7A188" id="path1462"/>
      <path d="M344.087,322.847 C340.037,334.187 328.697,333.107 328.697,333.107 C363.527,361.187 404.023,341.477 404.023,341.477 L406.453,341.747 C401.053,329.597 392.143,319.067 380.267,310.157 C365.417,299.357 348.407,293.957 331.937,294.767 C339.767,297.737 348.137,311.507 344.357,322.577 z" fill-opacity="0" stroke="#373435" stroke-width="7.249" stroke-linejoin="round" id="path1464"/>
    </g>
    <path d="M331.937,334.187 C331.937,334.187 361.637,351.737 392.953,322.847" fill-opacity="0" stroke="#373435" stroke-width="7.249" stroke-linecap="round" stroke-linejoin="round" id="path1468"/>
    <path d="M330.587,333.647 C330.587,333.647 355.967,344.987 369.737,305.027" fill-opacity="0" stroke="#373435" stroke-width="7.249" stroke-linecap="round" stroke-linejoin="round" id="path1470"/>
    <g id="g1476">
      <path d="M324.107,519.677 C324.107,519.677 333.557,514.547 334.637,508.877 L360.287,508.607 C360.287,508.607 362.447,541.547 331.127,549.107 z" fill="#FCD2B5" id="path1472"/>
      <path d="M324.107,519.677 C324.107,519.677 333.557,514.547 334.637,508.877 L360.287,508.607 C360.287,508.607 362.447,541.547 331.127,549.107 z" fill-opacity="0" stroke="#373435" stroke-width="7.249" stroke-linejoin="round" id="path1474"/>
    </g>
    <g id="_334908176">
      <g id="g1482">
        <path d="M361.097,468.917 L359.747,472.967 C359.747,472.967 335.447,472.967 318.167,484.847 C318.167,484.847 321.137,501.587 338.957,509.687 C338.957,509.687 356.777,513.197 363.797,502.667 C370.547,492.137 367.577,470.807 361.097,468.917 z" fill="#FCD2B5" id="path1478"/>
        <path d="M361.097,468.917 L359.747,472.967 C359.747,472.967 335.447,472.967 318.167,484.847 C318.167,484.847 321.137,501.587 338.957,509.687 C338.957,509.687 356.777,513.197 363.797,502.667 C370.547,492.137 367.577,470.807 361.097,468.917 z" fill-opacity="0" stroke="#373435" stroke-width="7.249" stroke-linejoin="round" id="path1480"/>
      </g>
      <path d="M351.647,481.877 L334.637,479.447 C334.637,479.447 344.897,482.147 351.647,481.877 z" fill="#FDE3D8" id="path1484"/>
      <path d="M334.637,479.447 C334.637,479.447 344.897,482.147 351.647,481.877" fill-opacity="0" stroke="#373435" stroke-width="7.249" stroke-linecap="round" stroke-linejoin="round" id="path1486"/>
      <path d="M348.407,491.327 L322.217,484.577 C322.217,484.577 336.527,492.407 348.407,491.327 z" fill="#FDE3D8" id="path1488"/>
      <path d="M322.217,484.577 C322.217,484.577 336.527,492.407 348.407,491.327" fill-opacity="0" stroke="#373435" stroke-width="7.249" stroke-linecap="round" stroke-linejoin="round" id="path1490"/>
      <path d="M347.057,501.047 L326.267,497.537 C326.267,497.537 339.497,502.127 347.057,501.047 z" fill="#FDE3D8" id="path1492"/>
      <path d="M326.267,497.537 C326.267,497.537 339.497,502.127 347.057,501.047" fill-opacity="0" stroke="#373435" stroke-width="7.249" stroke-linecap="round" stroke-linejoin="round" id="path1494"/>
    </g>
    <path d="M137,471.347 L111.89,528.857 C111.89,528.857 120.8,545.867 177.5,575.027 C245.537,603.917 309.797,567.737 329.507,551.537 C329.507,551.537 335.717,546.137 333.017,532.097 C330.047,518.057 317.357,519.677 317.357,519.677 C205.58,573.677 136.73,471.347 136.73,471.347 z" fill="#F9C3C2" id="path1497"/>
    <path d="M111.89,528.857 C111.89,528.857 120.8,545.867 177.5,575.027 C245.537,603.917 309.797,567.737 329.507,551.537 C329.507,551.537 335.717,546.137 333.017,532.097 C330.047,518.057 317.357,519.677 317.357,519.677 C205.58,573.677 136.73,471.347 136.73,471.347" fill-opacity="0" stroke="#373435" stroke-width="7.249" stroke-linecap="round" stroke-linejoin="round" id="path1499"/>
    <g id="g1505">
      <path d="M167.78,404.927 C167.78,404.927 165.89,415.187 169.4,429.497 C170.48,433.817 125.39,435.707 118.37,411.947 C111.35,388.457 136.73,378.737 141.32,378.197 C145.91,377.657 164.81,375.497 175.07,380.087 C185.33,384.677 192.62,393.047 193.97,401.957 L167.51,404.657 z" fill="#FEFEFE" id="path1501"/>
      <path d="M167.78,404.927 C167.78,404.927 165.89,415.187 169.4,429.497 C170.48,433.817 125.39,435.707 118.37,411.947 C111.35,388.457 136.73,378.737 141.32,378.197 C145.91,377.657 164.81,375.497 175.07,380.087 C185.33,384.677 192.62,393.047 193.97,401.957 L167.51,404.657 z" fill-opacity="0" stroke="#373435" stroke-width="7.249" stroke-linejoin="round" id="path1503"/>
    </g>
    <g id="_334909904">
      <g id="g1511">
        <path d="M140.78,373.607 L138.62,396.017 C138.62,396.017 139.97,404.657 155.36,406.007 C161.84,406.547 169.94,402.767 171.02,397.367 L170.75,378.467 z" fill="#FCD2B5" id="path1507"/>
        <path d="M140.78,373.607 L138.62,396.017 C138.62,396.017 139.97,404.657 155.36,406.007 C161.84,406.547 169.94,402.767 171.02,397.367 L170.75,378.467 z" fill-opacity="0" stroke="#373435" stroke-width="7.249" stroke-linejoin="round" id="path1509"/>
      </g>
      <g id="g1517">
        <path d="M170.48,382.247 C227.18,380.897 289.817,332.297 277.667,229.431 C273.617,195.411 258.227,166.251 236.9,145.731 C236.9,145.731 190.19,251.841 101.9,235.911 C101.9,235.911 87.864,269.121 111.62,318.527 C111.62,318.527 77.604,299.087 73.824,251.031 L73.824,251.301 C73.824,251.301 60.324,248.601 57.624,255.621 C56.544,258.321 67.074,265.611 67.344,268.851 C77.874,333.107 101.9,360.107 140.78,377.117 C140.78,377.117 154.55,383.057 170.21,381.977 z" fill="#FCD2B5" id="path1513"/>
        <path d="M170.48,382.247 C227.18,380.897 289.817,332.297 277.667,229.431 C273.617,195.411 258.227,166.251 236.9,145.731 C236.9,145.731 190.19,251.841 101.9,235.911 C101.9,235.911 87.864,269.121 111.62,318.527 C111.62,318.527 77.604,299.087 73.824,251.031 L73.824,251.301 C73.824,251.301 60.324,248.601 57.624,255.621 C56.544,258.321 67.074,265.611 67.344,268.851 C77.874,333.107 101.9,360.107 140.78,377.117 C140.78,377.117 154.55,383.057 170.21,381.977 z" fill-opacity="0" stroke="#373435" stroke-width="7.249" stroke-linejoin="round" id="path1515"/>
      </g>
    </g>
    <g id="g1524">
      <path d="M75.444,244.551 C70.584,243.741 65.184,244.551 60.864,247.791 C57.084,250.491 54.384,255.081 53.304,260.751 C52.494,265.071 53.034,269.931 54.654,275.871 C56.004,281.271 57.624,285.591 59.784,289.367 C62.484,293.957 66.264,297.197 69.774,299.627 C74.094,302.597 78.684,304.487 82.734,305.567 C89.484,306.917 94.884,306.377 96.774,306.647 C94.074,303.407 91.914,299.897 89.484,295.847 C87.324,292.337 85.704,288.561 83.814,283.971 C82.464,280.191 80.844,276.141 79.764,271.281 C78.954,267.501 78.144,263.181 77.334,258.321 C76.794,254.271 76.524,249.951 76.254,245.091 C76.254,244.821 75.714,245.091 75.174,245.091 z" fill="#FCD2B5" id="path1520"/>
      <path d="M75.444,244.551 C70.584,243.741 65.184,244.551 60.864,247.791 C57.084,250.491 54.384,255.081 53.304,260.751 C52.494,265.071 53.034,269.931 54.654,275.871 C56.004,281.271 57.624,285.591 59.784,289.367 C62.484,293.957 66.264,297.197 69.774,299.627 C74.094,302.597 78.684,304.487 82.734,305.567 C89.484,306.917 94.884,306.377 96.774,306.647 C94.074,303.407 91.914,299.897 89.484,295.847 C87.324,292.337 85.704,288.561 83.814,283.971 C82.464,280.191 80.844,276.141 79.764,271.281 C78.954,267.501 78.144,263.181 77.334,258.321 C76.794,254.271 76.524,249.951 76.254,245.091 C76.254,244.821 75.714,245.091 75.174,245.091" fill-opacity="0" stroke="#373435" stroke-width="7.249" stroke-linecap="round" stroke-linejoin="round" id="path1522"/>
    </g>
    <path d="M162.92,316.637 C162.92,316.637 179.93,344.717 205.85,330.137" fill-opacity="0" stroke="#373435" stroke-width="7.249" stroke-linecap="round" stroke-linejoin="round" id="path1526"/>
    <path d="M304.937,382.247 C304.937,382.247 306.287,398.177 326.537,396.557" fill-opacity="0" stroke="#373435" stroke-width="5.572" stroke-linecap="round" stroke-linejoin="round" id="path1528"/>
    <path d="M202.07,154.911 C202.07,154.911 169.94,209.721 108.38,219.981" fill-opacity="0" stroke="#373435" stroke-width="7.249" stroke-linecap="round" stroke-linejoin="round" id="path1530"/>
    <path d="M152.39,178.401 C149.96,180.021 130.52,196.221 101.634,202.161" fill-opacity="0" stroke="#373435" stroke-width="7.249" stroke-linecap="round" stroke-linejoin="round" id="path1532"/>
    <g id="g1538">
      <path d="M544.149,332.297 L541.989,396.827 L501.763,372.797 L459.103,386.297 L466.393,327.707 L479.083,319.607 L478.813,332.297 L502.033,367.667 L527.679,334.457 L528.219,317.177 z" fill="#D4E6AD" id="path1534"/>
      <path d="M544.149,332.297 L541.989,396.827 L501.763,372.797 L459.103,386.297 L466.393,327.707 L479.083,319.607 L478.813,332.297 L502.033,367.667 L527.679,334.457 L528.219,317.177 z" fill-opacity="0" stroke="#373435" stroke-width="7.249" stroke-linejoin="round" id="path1536"/>
    </g>
    <path d="M503.653,391.157 C503.653,392.777 502.303,394.127 500.683,394.127 C499.063,394.127 497.713,392.776 497.713,391.157 C497.713,389.537 499.063,388.187 500.683,388.187 C502.303,388.187 503.653,389.536 503.653,391.157 z" fill="#373435" id="path1540"/>
    <path d="M502.573,408.437 C502.573,410.057 501.223,411.407 499.603,411.407 C497.983,411.407 496.633,410.056 496.633,408.437 C496.633,406.817 497.983,405.467 499.603,405.467 C501.223,405.467 502.573,406.816 502.573,408.437 z" fill="#373435" id="path1542"/>
    <path d="M500.683,428.957 C500.683,430.577 499.333,431.927 497.713,431.927 C496.093,431.927 494.743,430.576 494.743,428.957 C494.743,427.337 496.093,425.987 497.713,425.987 C499.333,425.987 500.683,427.336 500.683,428.957 z" fill="#373435" id="path1544"/>
    <path d="M530.109,427.337 C530.109,427.337 570.609,427.877 577.089,428.417" fill-opacity="0" stroke="#373435" stroke-width="7.249" stroke-linecap="round" stroke-linejoin="round" id="path1546"/>
    <path d="M577.089,428.417 L574.659,463.247 L549.549,473.777 L529.569,460.547 L530.109,427.337" fill-opacity="0" stroke="#373435" stroke-width="7.249" stroke-linecap="round" stroke-linejoin="round" id="path1548"/>
    <path d="M61.404,340.937 C61.404,340.937 82.734,373.607 51.144,379.817" fill-opacity="0" stroke="#373435" stroke-width="7.249" stroke-linecap="round" stroke-linejoin="round" id="path1550"/>
    <path d="M81.924,365.507 C81.924,365.507 91.104,382.787 65.454,388.997" fill-opacity="0" stroke="#373435" stroke-width="7.249" stroke-linecap="round" stroke-linejoin="round" id="path1552"/>
    <g id="g1558">
      <path d="M426.163,166.791 C416.443,163.011 404.563,167.061 405.913,185.421 C407.803,208.101 429.943,215.661 433.723,217.011 C429.403,205.941 424.813,193.251 426.433,167.061 L425.893,166.791 z" fill="#FCD2B5" id="path1554"/>
      <path d="M426.163,166.791 C416.443,163.011 404.563,167.061 405.913,185.421 C407.803,208.101 429.943,215.661 433.723,217.011 C429.403,205.941 424.813,193.251 426.433,167.061 L425.893,166.791 z" fill-opacity="0" stroke="#373435" stroke-width="7.249" stroke-linejoin="round" id="path1556"/>
    </g>
    <path d="M624.609,67.431 C624.609,67.431 710.735,117.381 606.249,234.561 L590.859,247.791 L437.233,106.581 C437.233,106.581 416.173,92.001 425.623,55.011 C425.623,55.011 435.073,18.561 511.483,20.181 L497.713,3.441 C497.713,3.441 602.469,-1.689 624.609,67.431 z" fill="#FEFEFE" id="path1560"/>
    <g id="g1566">
      <path d="M624.609,67.431 C624.609,67.431 710.465,119.001 606.249,236.181 L593.829,250.491 L437.503,106.851 C437.503,106.851 416.443,92.271 425.893,55.281 C425.893,55.281 435.343,18.831 511.753,20.451 L497.983,3.711 C497.983,3.711 602.739,-1.419 624.879,67.701 z" fill="#BD9E83" id="path1562"/>
      <path d="M624.609,67.431 C624.609,67.431 710.465,119.001 606.249,236.181 L593.829,250.491 L437.503,106.851 C437.503,106.851 416.443,92.271 425.893,55.281 C425.893,55.281 435.343,18.831 511.753,20.451 L497.983,3.711 C497.983,3.711 602.739,-1.419 624.879,67.701 z" fill-opacity="0" stroke="#373435" stroke-width="7.249" stroke-linejoin="round" id="path1564"/>
    </g>
    <g id="g1572">
      <path d="M533.079,312.587 C555.219,302.867 578.979,283.431 594.369,232.401 L607.059,181.101 C607.059,181.101 581.679,183.261 609.489,121.161 C609.489,121.161 558.729,110.901 506.623,101.181 C498.793,99.831 535.779,88.221 535.779,87.681 C519.853,86.061 486.373,84.711 462.343,91.191 C462.343,91.191 444.253,95.241 435.613,124.671 C415.903,191.361 397.003,299.087 478.543,315.287 C478.543,315.287 510.403,320.417 532.809,312.317 z" fill="#FCD2B5" id="path1568"/>
      <path d="M533.079,312.587 C555.219,302.867 578.979,283.431 594.369,232.401 L607.059,181.101 C607.059,181.101 581.679,183.261 609.489,121.161 C609.489,121.161 558.729,110.901 506.623,101.181 C498.793,99.831 535.779,88.221 535.779,87.681 C519.853,86.061 486.373,84.711 462.343,91.191 C462.343,91.191 444.253,95.241 435.613,124.671 C415.903,191.361 397.003,299.087 478.543,315.287 C478.543,315.287 510.403,320.417 532.809,312.317 z" fill-opacity="0" stroke="#373435" stroke-width="7.249" stroke-linejoin="round" id="path1570"/>
    </g>
    <path d="M529.029,259.401 C529.029,259.401 504.463,286.401 473.953,262.641" fill-opacity="0" stroke="#373435" stroke-width="7.249" stroke-linecap="round" stroke-linejoin="round" id="path1574"/>
    <g id="g1580">
      <path d="M618.939,207.831 L625.149,209.181 L630.549,212.691 L633.789,218.091 L634.599,224.301 L632.979,230.511 L630.549,236.451 L626.769,241.581 L622.719,245.901 L617.589,249.681 L611.919,252.381 L605.979,254.271 L599.769,255.351 L593.559,255.351 L587.349,255.081 L591.939,250.491 L596.259,245.901 L600.309,241.041 L604.089,235.911 L607.329,230.511 L610.569,225.111 L613.269,219.441 L615.699,213.501 L618.129,207.561 z" fill="#FCD2B5" id="path1576"/>
      <path d="M618.939,207.831 L625.149,209.181 L630.549,212.691 L633.789,218.091 L634.599,224.301 L632.979,230.511 L630.549,236.451 L626.769,241.581 L622.719,245.901 L617.589,249.681 L611.919,252.381 L605.979,254.271 L599.769,255.351 L593.559,255.351 L587.349,255.081 L591.939,250.491 L596.259,245.901 L600.309,241.041 L604.089,235.911 L607.329,230.511 L610.569,225.111 L613.269,219.441 L615.699,213.501 L618.129,207.561 z" fill-opacity="0" stroke="#373435" stroke-width="7.249" stroke-linecap="round" stroke-linejoin="round" id="path1578"/>
    </g>
    <path d="M620.019,130.341 C620.019,130.341 604.899,164.091 617.589,170.031" fill-opacity="0" stroke="#373435" stroke-width="7.249" stroke-linecap="round" stroke-linejoin="round" id="path1582"/>
    <path d="M547.389,96.321 C547.389,96.321 605.709,105.501 612.459,108.201" fill-opacity="0" stroke="#373435" stroke-width="7.249" stroke-linecap="round" stroke-linejoin="round" id="path1584"/>
    <path d="M471.253,44.211 C471.253,44.211 450.193,56.091 454.243,70.401" fill-opacity="0" stroke="#373435" stroke-width="7.249" stroke-linecap="round" stroke-linejoin="round" id="path1586"/>
    <path d="M443.443,73.101 L445.603,56.631 C445.603,56.631 439.393,62.841 443.443,73.101 z" fill="#D4E6AD" id="path1588"/>
    <path d="M445.333,56.901 C445.333,56.901 439.123,63.111 443.173,73.371" fill-opacity="0" stroke="#373435" stroke-width="7.249" stroke-linecap="round" stroke-linejoin="round" id="path1590"/>
    <g id="_334912832">
      <path d="M228.53,269.391 C228.8,272.631 237.71,274.251 248.507,273.171 C259.307,272.091 267.677,268.581 267.407,265.341 C267.137,262.101 258.227,260.481 247.427,261.561 C236.63,262.641 228.26,266.151 228.53,269.391 z" fill="#F8B7B3" fill-opacity="0.702" id="path1592"/>
      <path d="M242.03,259.941 L240.14,241.851 C240.14,241.851 240.68,249.951 242.03,259.941 z" fill="#FEFEFE" id="path1594"/>
      <path d="M239.87,241.581 C239.87,241.581 240.41,249.681 241.757,259.671" fill-opacity="0" stroke="#373435" stroke-width="9.056" stroke-linecap="round" stroke-linejoin="round" id="path1596"/>
      <path d="M126.74,276.951 C127.01,280.191 135.65,282.351 146.45,281.541 C157.25,281.001 165.89,277.761 165.62,274.791 C165.35,271.551 156.44,269.391 145.64,270.201 C134.84,270.741 126.2,273.981 126.47,276.951 z" fill="#F8B7B3" fill-opacity="0.702" id="path1598"/>
      <path d="M152.12,270.471 L150.5,254.541 C150.5,254.541 150.77,260.211 152.12,270.471 z" fill="#FEFEFE" id="path1600"/>
      <path d="M150.5,254.271 C150.5,254.271 150.77,259.941 152.12,270.201" fill-opacity="0" stroke="#373435" stroke-width="9.056" stroke-linecap="round" stroke-linejoin="round" id="path1602"/>
      <path d="M201.53,265.071 C199.37,275.061 219.89,266.961 218,276.681 C216.92,282.891 202.34,283.431 197.48,283.701" fill-opacity="0" stroke="#373435" stroke-width="7.042" stroke-linecap="round" stroke-linejoin="round" id="path1604"/>
    </g>
    <g id="_334913576">
      <path d="M476.383,186.231 C475.843,189.471 466.663,190.551 456.133,188.391 C445.603,186.501 437.233,182.451 437.773,179.211 C438.313,175.971 447.493,175.161 458.023,177.051 C468.553,178.941 476.923,182.991 476.383,186.231 z" fill="#F8B7B3" fill-opacity="0.702" id="path1607"/>
      <path d="M463.693,175.701 L466.933,157.611 C466.933,157.611 465.853,165.441 463.693,175.701 z" fill="#FEFEFE" id="path1609"/>
      <path d="M466.933,157.881 C466.933,157.881 465.853,165.711 463.693,175.971" fill-opacity="0" stroke="#373435" stroke-width="9.056" stroke-linecap="round" stroke-linejoin="round" id="path1611"/>
      <path d="M577.089,201.891 C576.819,205.131 567.639,206.481 556.839,205.131 C546.039,203.781 537.669,200.001 538.209,196.761 C538.749,193.521 547.659,192.171 558.459,193.521 C569.259,194.871 577.629,198.651 577.089,201.891 z" fill="#F8B7B3" fill-opacity="0.702" id="path1613"/>
      <path d="M552.249,193.251 L555.219,177.321 C555.219,177.321 554.409,182.991 552.249,193.251 z" fill="#FEFEFE" id="path1615"/>
      <path d="M555.219,177.321 C555.219,177.321 554.409,182.991 552.249,193.251" fill-opacity="0" stroke="#373435" stroke-width="9.056" stroke-linecap="round" stroke-linejoin="round" id="path1617"/>
      <path d="M503.653,184.071 C505.003,194.331 485.293,184.341 486.373,194.331 C487.183,200.811 501.493,202.431 506.083,202.971" fill-opacity="0" stroke="#373435" stroke-width="7.042" stroke-linecap="round" stroke-linejoin="round" id="path1619"/>
    </g>
    <g id="_334914104">
      <path d="M316.547,356.867 C315.467,358.487 310.607,357.137 305.477,353.897 C300.347,350.657 296.837,346.877 297.917,345.257 C298.997,343.637 303.857,344.987 308.987,348.227 C314.117,351.467 317.627,355.247 316.547,356.867 z" fill="#F8B7B3" fill-opacity="0.702" id="path1622"/>
      <path d="M310.607,347.957 L315.467,341.207 C315.467,341.207 313.847,343.097 310.607,347.957 z" fill="#FEFEFE" id="path1624"/>
      <path d="M315.467,341.477 C315.467,341.477 313.847,343.367 310.607,348.227" fill-opacity="0" stroke="#373435" stroke-width="5.126" stroke-linecap="round" stroke-linejoin="round" id="path1626"/>
      <path d="M366.497,386.027 C365.687,387.647 360.557,386.567 355.157,383.597 C349.757,380.627 346.247,376.847 347.057,375.227 C347.867,373.607 352.997,374.687 358.397,377.657 C363.797,380.627 367.307,384.407 366.497,386.027 z" fill="#F8B7B3" fill-opacity="0.702" id="path1628"/>
      <path d="M355.427,377.657 L359.477,371.447 C359.477,371.447 358.937,372.797 355.427,377.657 z" fill="#FEFEFE" id="path1630"/>
      <path d="M359.477,371.447 C359.477,371.447 358.937,372.797 355.427,377.657" fill-opacity="0" stroke="#373435" stroke-width="5.126" stroke-linecap="round" stroke-linejoin="round" id="path1632"/>
    </g>
    <path d="M333.287,369.017 C332.207,370.637 329.777,371.177 327.617,369.826 C325.457,368.477 324.647,366.046 325.727,364.426 C326.807,362.806 329.237,362.266 331.397,363.617 C333.557,364.966 334.367,367.397 333.287,369.017" fill-opacity="0" stroke="#373435" stroke-width="4.099" stroke-linecap="round" stroke-linejoin="round" id="path1635"/>
  </g>
</svg>
